<mxfile host="app.diagrams.net" modified="2021-03-20T18:07:40.902Z" agent="5.0 (Windows NT 10.0; Win64; x64) AppleWebKit/537.36 (KHTML, like Gecko) Chrome/89.0.4389.82 Safari/537.36" etag="8tVvET9S8kQEmhoVdBR9" version="14.4.8" type="github">
  <diagram id="7gIcpns1lyql0Nq52uC7" name="第 1 页">
    <mxGraphModel dx="1422" dy="706" grid="0" gridSize="10" guides="1" tooltips="1" connect="1" arrows="1" fold="1" page="1" pageScale="1" pageWidth="827" pageHeight="1169" background="none" math="0" shadow="1">
      <root>
        <mxCell id="0" />
        <mxCell id="1" parent="0" />
        <mxCell id="s3NNsCVy1vv4e9up-VMe-63" value="" style="group" vertex="1" connectable="0" parent="1">
          <mxGeometry x="170" y="27" width="470" height="201" as="geometry" />
        </mxCell>
        <mxCell id="s3NNsCVy1vv4e9up-VMe-1" value="" style="group" vertex="1" connectable="0" parent="s3NNsCVy1vv4e9up-VMe-63">
          <mxGeometry x="350" width="120" height="164" as="geometry" />
        </mxCell>
        <mxCell id="s3NNsCVy1vv4e9up-VMe-2" value="my_data_list" style="swimlane;fontStyle=0;childLayout=stackLayout;horizontal=1;startSize=26;fillColor=#d5e8d4;horizontalStack=0;resizeParent=1;resizeParentMax=0;resizeLast=0;collapsible=1;marginBottom=0;fontSize=14;strokeColor=#82b366;" vertex="1" parent="s3NNsCVy1vv4e9up-VMe-1">
          <mxGeometry y="60" width="120" height="104" as="geometry" />
        </mxCell>
        <mxCell id="s3NNsCVy1vv4e9up-VMe-3" value="val: 1" style="text;strokeColor=#314354;fillColor=#647687;align=left;verticalAlign=top;spacingLeft=4;spacingRight=4;overflow=hidden;rotatable=0;points=[[0,0.5],[1,0.5]];portConstraint=eastwest;fontColor=#ffffff;fontSize=14;" vertex="1" parent="s3NNsCVy1vv4e9up-VMe-2">
          <mxGeometry y="26" width="120" height="26" as="geometry" />
        </mxCell>
        <mxCell id="s3NNsCVy1vv4e9up-VMe-4" value="list: next" style="text;strokeColor=#314354;fillColor=#647687;align=left;verticalAlign=top;spacingLeft=4;spacingRight=4;overflow=hidden;rotatable=0;points=[[0,0.5],[1,0.5]];portConstraint=eastwest;fontColor=#ffffff;fontSize=14;" vertex="1" parent="s3NNsCVy1vv4e9up-VMe-2">
          <mxGeometry y="52" width="120" height="26" as="geometry" />
        </mxCell>
        <mxCell id="s3NNsCVy1vv4e9up-VMe-5" style="edgeStyle=orthogonalEdgeStyle;curved=1;rounded=0;orthogonalLoop=1;jettySize=auto;html=1;exitX=1;exitY=0.5;exitDx=0;exitDy=0;entryX=0;entryY=0.5;entryDx=0;entryDy=0;fontSize=14;" edge="1" parent="s3NNsCVy1vv4e9up-VMe-2" source="s3NNsCVy1vv4e9up-VMe-7" target="s3NNsCVy1vv4e9up-VMe-4">
          <mxGeometry relative="1" as="geometry">
            <Array as="points">
              <mxPoint x="140" y="91" />
              <mxPoint x="140" y="130" />
              <mxPoint x="-20" y="130" />
              <mxPoint x="-20" y="65" />
            </Array>
          </mxGeometry>
        </mxCell>
        <mxCell id="s3NNsCVy1vv4e9up-VMe-6" value="Prev" style="edgeLabel;html=1;align=center;verticalAlign=middle;resizable=0;points=[];fontSize=14;" vertex="1" connectable="0" parent="s3NNsCVy1vv4e9up-VMe-5">
          <mxGeometry x="-0.2303" y="-2" relative="1" as="geometry">
            <mxPoint as="offset" />
          </mxGeometry>
        </mxCell>
        <mxCell id="s3NNsCVy1vv4e9up-VMe-7" value="list: prev" style="text;strokeColor=#314354;fillColor=#647687;align=left;verticalAlign=top;spacingLeft=4;spacingRight=4;overflow=hidden;rotatable=0;points=[[0,0.5],[1,0.5]];portConstraint=eastwest;fontColor=#ffffff;fontSize=14;" vertex="1" parent="s3NNsCVy1vv4e9up-VMe-2">
          <mxGeometry y="78" width="120" height="26" as="geometry" />
        </mxCell>
        <mxCell id="s3NNsCVy1vv4e9up-VMe-8" style="edgeStyle=orthogonalEdgeStyle;curved=1;rounded=0;orthogonalLoop=1;jettySize=auto;html=1;exitX=1;exitY=0.5;exitDx=0;exitDy=0;entryX=0;entryY=0.5;entryDx=0;entryDy=0;fontSize=14;" edge="1" parent="s3NNsCVy1vv4e9up-VMe-2" source="s3NNsCVy1vv4e9up-VMe-4" target="s3NNsCVy1vv4e9up-VMe-4">
          <mxGeometry relative="1" as="geometry">
            <Array as="points">
              <mxPoint x="150" y="65" />
              <mxPoint x="150" y="-20" />
              <mxPoint x="-30" y="-20" />
              <mxPoint x="-30" y="65" />
            </Array>
          </mxGeometry>
        </mxCell>
        <mxCell id="s3NNsCVy1vv4e9up-VMe-9" value="Next" style="edgeLabel;html=1;align=center;verticalAlign=middle;resizable=0;points=[];fontSize=14;" vertex="1" connectable="0" parent="s3NNsCVy1vv4e9up-VMe-8">
          <mxGeometry x="-0.3463" y="12" relative="1" as="geometry">
            <mxPoint as="offset" />
          </mxGeometry>
        </mxCell>
        <mxCell id="s3NNsCVy1vv4e9up-VMe-10" value="节点1" style="text;html=1;align=center;verticalAlign=middle;resizable=0;points=[];autosize=1;fontSize=14;" vertex="1" parent="s3NNsCVy1vv4e9up-VMe-1">
          <mxGeometry x="35" width="50" height="20" as="geometry" />
        </mxCell>
        <mxCell id="s3NNsCVy1vv4e9up-VMe-11" value="list_head" style="swimlane;fontStyle=0;childLayout=stackLayout;horizontal=1;startSize=26;fillColor=#e1d5e7;horizontalStack=0;resizeParent=1;resizeParentMax=0;resizeLast=0;collapsible=1;marginBottom=0;fontSize=14;strokeColor=#9673a6;" vertex="1" parent="s3NNsCVy1vv4e9up-VMe-63">
          <mxGeometry x="40" y="86" width="140" height="78" as="geometry" />
        </mxCell>
        <mxCell id="s3NNsCVy1vv4e9up-VMe-12" value="Next" style="edgeStyle=orthogonalEdgeStyle;curved=1;rounded=0;orthogonalLoop=1;jettySize=auto;html=1;exitX=1;exitY=0.5;exitDx=0;exitDy=0;entryX=1;entryY=0;entryDx=0;entryDy=0;fontSize=14;" edge="1" parent="s3NNsCVy1vv4e9up-VMe-11" source="s3NNsCVy1vv4e9up-VMe-13" target="s3NNsCVy1vv4e9up-VMe-11">
          <mxGeometry relative="1" as="geometry">
            <Array as="points">
              <mxPoint x="160" y="39" />
              <mxPoint x="160" />
            </Array>
          </mxGeometry>
        </mxCell>
        <mxCell id="s3NNsCVy1vv4e9up-VMe-13" value="next" style="text;strokeColor=#314354;fillColor=#647687;align=left;verticalAlign=top;spacingLeft=4;spacingRight=4;overflow=hidden;rotatable=0;points=[[0,0.5],[1,0.5]];portConstraint=eastwest;fontColor=#ffffff;fontSize=14;" vertex="1" parent="s3NNsCVy1vv4e9up-VMe-11">
          <mxGeometry y="26" width="140" height="26" as="geometry" />
        </mxCell>
        <mxCell id="s3NNsCVy1vv4e9up-VMe-14" value="Prev" style="edgeStyle=orthogonalEdgeStyle;curved=1;rounded=0;orthogonalLoop=1;jettySize=auto;html=1;exitX=0;exitY=0.5;exitDx=0;exitDy=0;entryX=0;entryY=0.25;entryDx=0;entryDy=0;fontSize=14;" edge="1" parent="s3NNsCVy1vv4e9up-VMe-11" source="s3NNsCVy1vv4e9up-VMe-15" target="s3NNsCVy1vv4e9up-VMe-11">
          <mxGeometry relative="1" as="geometry" />
        </mxCell>
        <mxCell id="s3NNsCVy1vv4e9up-VMe-15" value="prev" style="text;strokeColor=#314354;fillColor=#647687;align=left;verticalAlign=top;spacingLeft=4;spacingRight=4;overflow=hidden;rotatable=0;points=[[0,0.5],[1,0.5]];portConstraint=eastwest;fontColor=#ffffff;fontSize=14;" vertex="1" parent="s3NNsCVy1vv4e9up-VMe-11">
          <mxGeometry y="52" width="140" height="26" as="geometry" />
        </mxCell>
        <mxCell id="s3NNsCVy1vv4e9up-VMe-16" value="listHead" style="text;html=1;align=center;verticalAlign=middle;resizable=0;points=[];autosize=1;fontSize=14;" vertex="1" parent="s3NNsCVy1vv4e9up-VMe-63">
          <mxGeometry x="75" y="40" width="70" height="20" as="geometry" />
        </mxCell>
        <mxCell id="s3NNsCVy1vv4e9up-VMe-18" value="" style="verticalLabelPosition=bottom;verticalAlign=top;html=1;shape=mxgraph.basic.x;strokeColor=#A50040;fontColor=#ffffff;fillColor=#FF3333;" vertex="1" parent="s3NNsCVy1vv4e9up-VMe-63">
          <mxGeometry x="380" y="181" width="20" height="20" as="geometry" />
        </mxCell>
        <mxCell id="s3NNsCVy1vv4e9up-VMe-23" value="" style="verticalLabelPosition=bottom;verticalAlign=top;html=1;shape=mxgraph.basic.x;strokeColor=#A50040;fontColor=#ffffff;fillColor=#FF3333;" vertex="1" parent="s3NNsCVy1vv4e9up-VMe-63">
          <mxGeometry x="340" y="20" width="20" height="20" as="geometry" />
        </mxCell>
        <mxCell id="s3NNsCVy1vv4e9up-VMe-27" value="" style="verticalLabelPosition=bottom;verticalAlign=top;html=1;shape=mxgraph.basic.x;strokeColor=#A50040;fontColor=#ffffff;fillColor=#FF3333;" vertex="1" parent="s3NNsCVy1vv4e9up-VMe-63">
          <mxGeometry x="220" y="91" width="20" height="20" as="geometry" />
        </mxCell>
        <mxCell id="s3NNsCVy1vv4e9up-VMe-28" value="" style="verticalLabelPosition=bottom;verticalAlign=top;html=1;shape=mxgraph.basic.x;strokeColor=#A50040;fontColor=#ffffff;fillColor=#FF3333;" vertex="1" parent="s3NNsCVy1vv4e9up-VMe-63">
          <mxGeometry y="141" width="20" height="20" as="geometry" />
        </mxCell>
        <mxCell id="s3NNsCVy1vv4e9up-VMe-64" value="" style="group" vertex="1" connectable="0" parent="1">
          <mxGeometry x="130" y="310" width="550" height="283" as="geometry" />
        </mxCell>
        <mxCell id="s3NNsCVy1vv4e9up-VMe-30" value="" style="group" vertex="1" connectable="0" parent="s3NNsCVy1vv4e9up-VMe-64">
          <mxGeometry x="370" width="120" height="164" as="geometry" />
        </mxCell>
        <mxCell id="s3NNsCVy1vv4e9up-VMe-31" value="my_data_list" style="swimlane;fontStyle=0;childLayout=stackLayout;horizontal=1;startSize=26;fillColor=#d5e8d4;horizontalStack=0;resizeParent=1;resizeParentMax=0;resizeLast=0;collapsible=1;marginBottom=0;fontSize=14;strokeColor=#82b366;" vertex="1" parent="s3NNsCVy1vv4e9up-VMe-30">
          <mxGeometry y="60" width="120" height="104" as="geometry" />
        </mxCell>
        <mxCell id="s3NNsCVy1vv4e9up-VMe-32" value="val: 1" style="text;strokeColor=#314354;fillColor=#647687;align=left;verticalAlign=top;spacingLeft=4;spacingRight=4;overflow=hidden;rotatable=0;points=[[0,0.5],[1,0.5]];portConstraint=eastwest;fontColor=#ffffff;fontSize=14;" vertex="1" parent="s3NNsCVy1vv4e9up-VMe-31">
          <mxGeometry y="26" width="120" height="26" as="geometry" />
        </mxCell>
        <mxCell id="s3NNsCVy1vv4e9up-VMe-33" value="list: next" style="text;strokeColor=#314354;fillColor=#647687;align=left;verticalAlign=top;spacingLeft=4;spacingRight=4;overflow=hidden;rotatable=0;points=[[0,0.5],[1,0.5]];portConstraint=eastwest;fontColor=#ffffff;fontSize=14;" vertex="1" parent="s3NNsCVy1vv4e9up-VMe-31">
          <mxGeometry y="52" width="120" height="26" as="geometry" />
        </mxCell>
        <mxCell id="s3NNsCVy1vv4e9up-VMe-36" value="list: prev" style="text;strokeColor=#314354;fillColor=#647687;align=left;verticalAlign=top;spacingLeft=4;spacingRight=4;overflow=hidden;rotatable=0;points=[[0,0.5],[1,0.5]];portConstraint=eastwest;fontColor=#ffffff;fontSize=14;" vertex="1" parent="s3NNsCVy1vv4e9up-VMe-31">
          <mxGeometry y="78" width="120" height="26" as="geometry" />
        </mxCell>
        <mxCell id="s3NNsCVy1vv4e9up-VMe-39" value="节点1" style="text;html=1;align=center;verticalAlign=middle;resizable=0;points=[];autosize=1;fontSize=14;" vertex="1" parent="s3NNsCVy1vv4e9up-VMe-30">
          <mxGeometry x="35" width="50" height="20" as="geometry" />
        </mxCell>
        <mxCell id="s3NNsCVy1vv4e9up-VMe-40" value="list_head" style="swimlane;fontStyle=0;childLayout=stackLayout;horizontal=1;startSize=26;fillColor=#e1d5e7;horizontalStack=0;resizeParent=1;resizeParentMax=0;resizeLast=0;collapsible=1;marginBottom=0;fontSize=14;strokeColor=#9673a6;" vertex="1" parent="s3NNsCVy1vv4e9up-VMe-64">
          <mxGeometry x="60" y="86" width="140" height="78" as="geometry" />
        </mxCell>
        <mxCell id="s3NNsCVy1vv4e9up-VMe-42" value="next" style="text;strokeColor=#314354;fillColor=#647687;align=left;verticalAlign=top;spacingLeft=4;spacingRight=4;overflow=hidden;rotatable=0;points=[[0,0.5],[1,0.5]];portConstraint=eastwest;fontColor=#ffffff;fontSize=14;" vertex="1" parent="s3NNsCVy1vv4e9up-VMe-40">
          <mxGeometry y="26" width="140" height="26" as="geometry" />
        </mxCell>
        <mxCell id="s3NNsCVy1vv4e9up-VMe-44" value="prev" style="text;strokeColor=#314354;fillColor=#647687;align=left;verticalAlign=top;spacingLeft=4;spacingRight=4;overflow=hidden;rotatable=0;points=[[0,0.5],[1,0.5]];portConstraint=eastwest;fontColor=#ffffff;fontSize=14;" vertex="1" parent="s3NNsCVy1vv4e9up-VMe-40">
          <mxGeometry y="52" width="140" height="26" as="geometry" />
        </mxCell>
        <mxCell id="s3NNsCVy1vv4e9up-VMe-45" value="listHead" style="text;html=1;align=center;verticalAlign=middle;resizable=0;points=[];autosize=1;fontSize=14;" vertex="1" parent="s3NNsCVy1vv4e9up-VMe-64">
          <mxGeometry x="95" y="40" width="70" height="20" as="geometry" />
        </mxCell>
        <mxCell id="s3NNsCVy1vv4e9up-VMe-52" style="edgeStyle=orthogonalEdgeStyle;curved=1;rounded=0;orthogonalLoop=1;jettySize=auto;html=1;exitX=1;exitY=0.5;exitDx=0;exitDy=0;entryX=0;entryY=0.5;entryDx=0;entryDy=0;fillColor=#6a00ff;strokeColor=#3700CC;" edge="1" parent="s3NNsCVy1vv4e9up-VMe-64" source="s3NNsCVy1vv4e9up-VMe-44" target="s3NNsCVy1vv4e9up-VMe-31">
          <mxGeometry relative="1" as="geometry" />
        </mxCell>
        <mxCell id="s3NNsCVy1vv4e9up-VMe-53" value="Prev" style="edgeLabel;html=1;align=center;verticalAlign=middle;resizable=0;points=[];" vertex="1" connectable="0" parent="s3NNsCVy1vv4e9up-VMe-52">
          <mxGeometry x="-0.1614" y="5" relative="1" as="geometry">
            <mxPoint as="offset" />
          </mxGeometry>
        </mxCell>
        <mxCell id="s3NNsCVy1vv4e9up-VMe-54" value="(1)" style="text;html=1;align=center;verticalAlign=middle;resizable=0;points=[];autosize=1;" vertex="1" parent="s3NNsCVy1vv4e9up-VMe-64">
          <mxGeometry x="245" y="143" width="30" height="20" as="geometry" />
        </mxCell>
        <mxCell id="s3NNsCVy1vv4e9up-VMe-55" value="Next" style="edgeStyle=orthogonalEdgeStyle;curved=1;rounded=0;orthogonalLoop=1;jettySize=auto;html=1;exitX=1;exitY=0.5;exitDx=0;exitDy=0;entryX=0;entryY=0.25;entryDx=0;entryDy=0;" edge="1" parent="s3NNsCVy1vv4e9up-VMe-64" source="s3NNsCVy1vv4e9up-VMe-33" target="s3NNsCVy1vv4e9up-VMe-40">
          <mxGeometry relative="1" as="geometry">
            <Array as="points">
              <mxPoint x="550" y="125" />
              <mxPoint x="550" y="223" />
              <mxPoint x="30" y="223" />
              <mxPoint x="30" y="106" />
            </Array>
          </mxGeometry>
        </mxCell>
        <mxCell id="s3NNsCVy1vv4e9up-VMe-56" value="(2)" style="text;html=1;align=center;verticalAlign=middle;resizable=0;points=[];autosize=1;" vertex="1" parent="s3NNsCVy1vv4e9up-VMe-64">
          <mxGeometry x="245" y="193" width="30" height="20" as="geometry" />
        </mxCell>
        <mxCell id="s3NNsCVy1vv4e9up-VMe-57" style="edgeStyle=orthogonalEdgeStyle;curved=1;rounded=0;orthogonalLoop=1;jettySize=auto;html=1;exitX=1;exitY=0.5;exitDx=0;exitDy=0;entryX=0;entryY=0;entryDx=0;entryDy=0;fillColor=#6a00ff;strokeColor=#3700CC;" edge="1" parent="s3NNsCVy1vv4e9up-VMe-64" source="s3NNsCVy1vv4e9up-VMe-36" target="s3NNsCVy1vv4e9up-VMe-40">
          <mxGeometry relative="1" as="geometry">
            <Array as="points">
              <mxPoint x="510" y="151" />
              <mxPoint x="510" y="283" />
              <mxPoint y="283" />
              <mxPoint y="86" />
            </Array>
          </mxGeometry>
        </mxCell>
        <mxCell id="s3NNsCVy1vv4e9up-VMe-58" value="Prev" style="edgeLabel;html=1;align=center;verticalAlign=middle;resizable=0;points=[];" vertex="1" connectable="0" parent="s3NNsCVy1vv4e9up-VMe-57">
          <mxGeometry x="-0.1578" y="-1" relative="1" as="geometry">
            <mxPoint as="offset" />
          </mxGeometry>
        </mxCell>
        <mxCell id="s3NNsCVy1vv4e9up-VMe-59" value="(3)" style="text;html=1;align=center;verticalAlign=middle;resizable=0;points=[];autosize=1;" vertex="1" parent="s3NNsCVy1vv4e9up-VMe-64">
          <mxGeometry x="245" y="253" width="30" height="20" as="geometry" />
        </mxCell>
        <mxCell id="s3NNsCVy1vv4e9up-VMe-60" style="edgeStyle=orthogonalEdgeStyle;curved=1;rounded=0;orthogonalLoop=1;jettySize=auto;html=1;exitX=1;exitY=0.5;exitDx=0;exitDy=0;entryX=0;entryY=0.5;entryDx=0;entryDy=0;" edge="1" parent="s3NNsCVy1vv4e9up-VMe-64" source="s3NNsCVy1vv4e9up-VMe-42" target="s3NNsCVy1vv4e9up-VMe-31">
          <mxGeometry relative="1" as="geometry">
            <mxPoint x="305" y="47" as="targetPoint" />
            <Array as="points">
              <mxPoint x="200" y="78" />
              <mxPoint x="351" y="78" />
              <mxPoint x="351" y="112" />
            </Array>
          </mxGeometry>
        </mxCell>
        <mxCell id="s3NNsCVy1vv4e9up-VMe-61" value="Next" style="edgeLabel;html=1;align=center;verticalAlign=middle;resizable=0;points=[];" vertex="1" connectable="0" parent="s3NNsCVy1vv4e9up-VMe-60">
          <mxGeometry x="0.1082" y="-2" relative="1" as="geometry">
            <mxPoint as="offset" />
          </mxGeometry>
        </mxCell>
        <mxCell id="s3NNsCVy1vv4e9up-VMe-62" value="(4)" style="text;html=1;align=center;verticalAlign=middle;resizable=0;points=[];autosize=1;" vertex="1" parent="s3NNsCVy1vv4e9up-VMe-64">
          <mxGeometry x="255" y="45" width="30" height="20" as="geometry" />
        </mxCell>
        <mxCell id="s3NNsCVy1vv4e9up-VMe-65" value="" style="html=1;shadow=0;dashed=0;align=center;verticalAlign=middle;shape=mxgraph.arrows2.arrow;dy=0.6;dx=40;direction=south;notch=0;fillColor=#6d8764;strokeColor=#3A5431;fontColor=#ffffff;" vertex="1" parent="1">
          <mxGeometry x="384.5" y="230" width="41" height="70" as="geometry" />
        </mxCell>
      </root>
    </mxGraphModel>
  </diagram>
</mxfile>
